<svg width="224" height="176" viewBox="0 0 224 176" fill="none" xmlns="http://www.w3.org/2000/svg">
<path d="M4.39999 144.1C3.69999 144.8 3.29999 145.7 3.29999 146.8C3.29999 147.9 3.69999 148.8 4.39999 149.5C5.09999 150.2 6.00001 150.6 7.10001 150.6H14.1C15.1 150.6 16 150.8 16.8 151.2C17.7 151.6 18.4 152.1 19 152.7C19.6 153.3 20.2 154.1 20.5 154.9C20.9 155.8 21.1 156.7 21.1 157.6C21.1 158.6 20.9 159.5 20.5 160.3C20.1 161.2 19.6 161.9 19 162.5C18.4 163.1 17.6 163.6 16.8 164C15.9 164.4 15 164.6 14.1 164.6H1.70001C1.20001 164.6 0.8 164.4 0.5 164.1C0.2 163.8 0 163.4 0 163C0 162.6 0.2 162.2 0.5 161.9C0.8 161.6 1.20001 161.4 1.70001 161.4H14.1C15.1 161.4 16 161 16.8 160.3C17.5 159.6 17.9 158.7 17.9 157.6C17.9 156.6 17.5 155.7 16.8 154.9C16.1 154.2 15.2 153.8 14.1 153.8H7.10001C6.10001 153.8 5.19999 153.6 4.39999 153.2C3.49999 152.8 2.80001 152.3 2.20001 151.7C1.60001 151.1 1.10001 150.3 0.700012 149.5C0.300012 148.6 0.100006 147.7 0.100006 146.8C0.100006 145.9 0.300012 144.9 0.700012 144.1C1.10001 143.2 1.60001 142.5 2.20001 141.9C2.80001 141.3 3.59999 140.7 4.39999 140.4C5.29999 140 6.20001 139.8 7.10001 139.8H19.5C20 139.8 20.4 140 20.7 140.3C21 140.6 21.2 141 21.2 141.4C21.2 141.9 21 142.3 20.7 142.6C20.4 142.9 20 143.1 19.5 143.1H7.10001C6.00001 143 5.19999 143.4 4.39999 144.1Z" fill="#AB693A"/>
<path d="M26.3999 164.7C25.9999 164.7 25.6 164.5 25.2 164.2C24.9 163.9 24.7 163.5 24.7 163.1V149.6C24.7 148.3 24.9999 147 25.4999 145.8C25.9999 144.6 26.6999 143.6 27.5999 142.7C28.4999 141.8 29.5 141.1 30.7 140.6C31.9 140.1 33.0999 139.8 34.4999 139.8C36.1999 139.8 37.6999 140.2 39.0999 141C40.4999 141.8 41.6999 142.8 42.5999 144.2C43.4999 142.8 44.5999 141.8 46.0999 141C47.4999 140.2 49.1 139.8 50.7 139.8C52 139.8 53.2999 140.1 54.4999 140.6C55.6999 141.1 56.6999 141.8 57.5999 142.7C58.4999 143.6 59.2 144.6 59.7 145.8C60.2 147 60.4999 148.2 60.4999 149.6V163.1C60.4999 163.5 60.2999 163.9 59.9999 164.2C59.6999 164.5 59.2999 164.7 58.8999 164.7C58.4999 164.7 58.1 164.5 57.7 164.2C57.4 163.9 57.2 163.5 57.2 163.1V149.6C57.2 148.7 57 147.9 56.7 147.1C56.4 146.3 55.8999 145.6 55.2999 145C54.6999 144.4 54 143.9 53.2 143.6C52.4 143.3 51.6 143.1 50.7 143.1C49.8 143.1 49 143.3 48.2 143.6C47.4 143.9 46.6999 144.4 46.0999 145C45.4999 145.6 45.1 146.3 44.7 147.1C44.3 147.9 44.2 148.7 44.2 149.6V163.1C44.2 163.5 44 163.9 43.7 164.2C43.4 164.5 42.9999 164.7 42.5999 164.7C42.1999 164.7 41.7999 164.5 41.3999 164.2C41.0999 163.9 40.8999 163.5 40.8999 163.1V149.6C40.8999 148.7 40.6999 147.9 40.3999 147.1C40.0999 146.3 39.5999 145.6 38.9999 145C38.3999 144.4 37.6999 143.9 36.8999 143.6C36.0999 143.3 35.2999 143.1 34.3999 143.1C33.4999 143.1 32.6999 143.3 31.8999 143.6C31.0999 143.9 30.3999 144.4 29.7999 145C29.1999 145.6 28.7999 146.3 28.3999 147.1C27.9999 147.9 27.8999 148.7 27.8999 149.6V163.1C27.8999 163.5 27.6999 163.9 27.3999 164.2C27.1999 164.5 26.7999 164.7 26.3999 164.7Z" fill="#AB693A"/>
<path d="M65.7001 137.5C65.3001 137.5 64.9001 137.3 64.6001 137C64.3001 136.7 64.1001 136.3 64.1001 135.9V135.3C64.1001 134.9 64.3001 134.5 64.6001 134.1C64.9001 133.8 65.3001 133.6 65.7001 133.6C66.1001 133.6 66.5001 133.8 66.9001 134.1C67.2001 134.4 67.4001 134.8 67.4001 135.3V135.9C67.4001 136.3 67.2001 136.7 66.9001 137C66.6001 137.4 66.2001 137.5 65.7001 137.5ZM65.7001 164.7C65.3001 164.7 64.9001 164.5 64.6001 164.2C64.3001 163.9 64.1001 163.5 64.1001 163V141.4C64.1001 140.9 64.3001 140.5 64.6001 140.2C64.9001 139.9 65.3001 139.7 65.7001 139.7C66.1001 139.7 66.5001 139.9 66.9001 140.2C67.2001 140.5 67.4001 140.9 67.4001 141.4V163C67.4001 163.5 67.2001 163.9 66.9001 164.2C66.6001 164.5 66.2001 164.7 65.7001 164.7Z" fill="#AB693A"/>
<path d="M73.2999 164.7C72.8999 164.7 72.5 164.5 72.2 164.2C71.9 163.9 71.7 163.5 71.7 163.1V127.9C71.7 127.5 71.9 127.1 72.2 126.7C72.5 126.4 72.8999 126.2 73.2999 126.2C73.6999 126.2 74.0999 126.4 74.3999 126.7C74.6999 127 74.8999 127.4 74.8999 127.9V163.1C74.8999 163.5 74.6999 163.9 74.3999 164.2C74.1999 164.5 73.7999 164.7 73.2999 164.7Z" fill="#AB693A"/>
<path d="M80.7001 137.5C80.3001 137.5 79.9001 137.3 79.6001 137C79.3001 136.7 79.1001 136.3 79.1001 135.9V135.3C79.1001 134.9 79.3001 134.5 79.6001 134.1C79.9001 133.8 80.3001 133.6 80.7001 133.6C81.1001 133.6 81.5001 133.8 81.9001 134.1C82.2001 134.4 82.4001 134.8 82.4001 135.3V135.9C82.4001 136.3 82.2001 136.7 81.9001 137C81.5001 137.4 81.1001 137.5 80.7001 137.5ZM80.7001 164.7C80.3001 164.7 79.9001 164.5 79.6001 164.2C79.3001 163.9 79.1001 163.5 79.1001 163V141.4C79.1001 140.9 79.3001 140.5 79.6001 140.2C79.9001 139.9 80.3001 139.7 80.7001 139.7C81.1001 139.7 81.5001 139.9 81.9001 140.2C82.2001 140.5 82.4001 140.9 82.4001 141.4V163C82.4001 163.5 82.2001 163.9 81.9001 164.2C81.5001 164.5 81.1001 164.7 80.7001 164.7Z" fill="#AB693A"/>
<path d="M87.8999 164.7C87.3999 164.7 87 164.5 86.7 164.2C86.4 163.9 86.2 163.5 86.2 163V152.2C86.2 150.5 86.5 148.9 87.2 147.4C87.8 145.9 88.6999 144.6 89.8999 143.4C90.9999 142.3 92.3999 141.4 93.8999 140.7C95.3999 140 96.9999 139.7 98.7999 139.7C100.5 139.7 102.1 140 103.6 140.7C105.1 141.3 106.4 142.2 107.6 143.4C108.7 144.5 109.6 145.9 110.3 147.4C110.9 148.9 111.3 150.5 111.3 152.2V163C111.3 163.4 111.1 163.8 110.8 164.2C110.5 164.5 110.1 164.7 109.6 164.7C109.2 164.7 108.8 164.5 108.5 164.2C108.2 163.9 108 163.5 108 163V152.2C108 150.9 107.8 149.8 107.3 148.6C106.8 147.5 106.2 146.5 105.3 145.7C104.5 144.9 103.5 144.2 102.4 143.7C101.3 143.2 100.1 143 98.7999 143C97.4999 143 96.3 143.2 95.2 143.7C94.1 144.2 93.0999 144.8 92.2999 145.7C91.4999 146.5 90.7999 147.5 90.2999 148.6C89.7999 149.7 89.5999 150.9 89.5999 152.2V163C89.5999 163.4 89.3999 163.8 89.0999 164.2C88.6999 164.5 88.3999 164.7 87.8999 164.7Z" fill="#AB693A"/>
<path d="M139.5 163.1C139.5 164.8 139.2 166.4 138.6 167.9C138 169.4 137.2 170.6 136.1 171.8C135.1 172.8 134 173.5 132.7 174.2C131.4 174.8 130.1 175.2 128.7 175.4C128.4 175.4 128.1 175.5 127.8 175.5C127.5 175.5 127.2 175.5 126.9 175.5C125.6 175.5 124.3 175.3 123.2 174.9C122.6 174.7 122 174.5 121.4 174.2C120.8 173.9 120.3 173.6 119.7 173.2C118.6 172.4 117.7 171.4 116.9 170.3C116 169.1 115.4 167.7 115 166.1C114.9 165.7 114.9 165.2 115.2 164.9C115.5 164.6 115.8 164.3 116.2 164.2C116.3 164.2 116.3 164.2 116.4 164.2C116.5 164.2 116.5 164.2 116.6 164.2C117.4 164.2 117.9 164.6 118.2 165.4C118.5 166.7 119 167.8 119.6 168.6C120.2 169.5 120.9 170.2 121.8 170.7C122.6 171.3 123.5 171.7 124.4 171.9C125.3 172.1 126.2 172.3 127 172.3C127.2 172.3 127.4 172.3 127.6 172.3C127.8 172.3 128 172.3 128.2 172.2C129.2 172.1 130.2 171.8 131.1 171.3C132.1 170.9 132.9 170.3 133.7 169.5C134.5 168.7 135.1 167.8 135.5 166.8C136 165.7 136.2 164.5 136.2 163.1V160.7C135.2 161.8 134.1 162.7 132.9 163.4C131.1 164.4 129.1 164.8 127 164.8C125.3 164.8 123.6 164.5 122.1 163.8C120.6 163.2 119.3 162.3 118.1 161.1C117 160 116.1 158.6 115.4 157.1C114.8 155.6 114.4 154 114.4 152.2C114.4 150.5 114.7 148.9 115.4 147.4C116 145.9 116.9 144.6 118.1 143.4C119.2 142.3 120.6 141.4 122.1 140.7C123.6 140.1 125.2 139.7 127 139.7C128.7 139.7 130.3 140 131.8 140.7C133.3 141.3 134.6 142.2 135.8 143.4C136.9 144.5 137.8 145.9 138.5 147.4C139.1 148.9 139.5 150.5 139.5 152.2V163.1V163.1ZM127 161.4C128.3 161.4 129.4 161.2 130.6 160.7C131.7 160.2 132.7 159.6 133.5 158.7C134.3 157.9 135 156.9 135.5 155.8C136 154.7 136.2 153.5 136.2 152.2C136.2 150.9 136 149.8 135.5 148.6C135 147.5 134.4 146.5 133.5 145.7C132.7 144.9 131.7 144.2 130.6 143.7C129.5 143.2 128.3 143 127 143C125.7 143 124.6 143.2 123.4 143.7C122.3 144.2 121.3 144.8 120.5 145.7C119.7 146.5 119 147.5 118.5 148.6C118 149.7 117.8 150.9 117.8 152.2C117.8 153.5 118 154.7 118.5 155.8C119 156.9 119.6 157.9 120.5 158.7C121.3 159.5 122.3 160.2 123.4 160.7C124.6 161.1 125.7 161.4 127 161.4Z" fill="#AB693A"/>
<path d="M155.2 139.7C157.3 139.7 159.2 140.2 161.1 141.2C162.4 141.9 163.5 142.8 164.4 143.8V127.8C164.4 127.4 164.6 127 164.9 126.7C165.2 126.4 165.6 126.2 166.1 126.2C166.5 126.2 166.9 126.4 167.2 126.7C167.5 127 167.7 127.4 167.7 127.8V152.2C167.7 153.9 167.4 155.6 166.7 157.1C166.1 158.6 165.2 159.9 164 161.1C162.9 162.2 161.5 163.1 160 163.8C158.5 164.4 156.9 164.8 155.2 164.8C153.5 164.8 151.8 164.5 150.3 163.8C148.8 163.2 147.5 162.3 146.3 161.1C145.2 160 144.3 158.6 143.6 157.1C143 155.6 142.6 154 142.6 152.2C142.6 150.5 142.9 148.9 143.6 147.4C144.2 145.9 145.1 144.6 146.3 143.4C147.4 142.3 148.8 141.4 150.3 140.7C151.8 140 153.5 139.7 155.2 139.7ZM164.4 152.2C164.4 150.9 164.2 149.8 163.7 148.6C163.2 147.5 162.6 146.5 161.7 145.7C160.9 144.9 159.9 144.2 158.8 143.7C157.7 143.2 156.5 143 155.2 143C153.9 143 152.8 143.2 151.6 143.7C150.5 144.2 149.5 144.8 148.7 145.7C147.9 146.5 147.2 147.5 146.7 148.6C146.2 149.7 146 150.9 146 152.2C146 153.5 146.2 154.7 146.7 155.8C147.2 156.9 147.8 157.9 148.7 158.7C149.5 159.5 150.5 160.2 151.6 160.7C152.7 161.2 153.9 161.4 155.2 161.4C156.5 161.4 157.6 161.2 158.8 160.7C159.9 160.2 160.9 159.6 161.7 158.7C162.5 157.9 163.2 156.9 163.7 155.8C164.2 154.7 164.4 153.5 164.4 152.2Z" fill="#684212"/>
<path d="M183.1 164.7C181.4 164.7 179.7 164.4 178.2 163.7C176.7 163.1 175.4 162.2 174.2 161C173.1 159.9 172.2 158.6 171.5 157.1C170.9 155.6 170.5 154 170.5 152.2C170.5 150.5 170.8 148.9 171.5 147.4C172.1 145.9 173 144.6 174.2 143.4C175.3 142.3 176.7 141.4 178.2 140.7C179.7 140 181.3 139.7 183.1 139.7C184.8 139.7 186.4 140 187.9 140.7C189.4 141.3 190.7 142.2 191.9 143.4C193 144.5 193.9 145.9 194.6 147.4C195.2 148.9 195.6 150.5 195.6 152.2C195.6 153.9 195.3 155.6 194.6 157.1C194 158.6 193.1 159.9 191.9 161C190.8 162.1 189.4 163 187.9 163.7C186.4 164.3 184.8 164.7 183.1 164.7ZM183.1 143C181.8 143 180.7 143.2 179.5 143.7C178.4 144.2 177.4 144.8 176.6 145.7C175.8 146.5 175.1 147.5 174.6 148.6C174.1 149.7 173.9 150.9 173.9 152.2C173.9 153.5 174.1 154.6 174.6 155.8C175.1 156.9 175.7 157.9 176.6 158.7C177.4 159.5 178.4 160.2 179.5 160.7C180.6 161.2 181.8 161.4 183.1 161.4C184.4 161.4 185.5 161.2 186.7 160.7C187.9 160.2 188.8 159.6 189.6 158.7C190.4 157.9 191.1 156.9 191.6 155.8C192.1 154.7 192.3 153.5 192.3 152.2C192.3 150.9 192.1 149.8 191.6 148.6C191.1 147.5 190.5 146.5 189.6 145.7C188.8 144.9 187.8 144.2 186.7 143.7C185.6 143.2 184.4 143 183.1 143Z" fill="#684212"/>
<path d="M223.2 163.1C223.2 164.8 222.9 166.4 222.3 167.9C221.7 169.4 220.9 170.6 219.8 171.8C218.8 172.8 217.7 173.5 216.4 174.2C215.1 174.8 213.8 175.2 212.4 175.4C212.1 175.4 211.8 175.5 211.5 175.5C211.2 175.5 210.9 175.5 210.6 175.5C209.3 175.5 208 175.3 206.9 174.9C206.3 174.7 205.7 174.5 205.1 174.2C204.5 173.9 204 173.6 203.4 173.2C202.3 172.4 201.4 171.4 200.6 170.3C199.7 169.1 199.1 167.7 198.7 166.1C198.6 165.7 198.6 165.2 198.9 164.9C199.2 164.6 199.5 164.3 199.9 164.2C200 164.2 200 164.2 200.1 164.2C200.2 164.2 200.2 164.2 200.3 164.2C201.1 164.2 201.6 164.6 201.9 165.4C202.2 166.7 202.7 167.8 203.3 168.6C203.9 169.5 204.6 170.2 205.5 170.7C206.4 171.2 207.2 171.7 208.1 171.9C209 172.1 209.9 172.3 210.7 172.3C210.9 172.3 211.1 172.3 211.3 172.3C211.5 172.3 211.7 172.3 211.9 172.2C212.9 172.1 213.9 171.8 214.8 171.3C215.8 170.9 216.6 170.3 217.4 169.5C218.2 168.7 218.8 167.8 219.2 166.8C219.7 165.7 219.9 164.5 219.9 163.1V160.7C218.9 161.8 217.8 162.7 216.6 163.4C214.8 164.4 212.8 164.8 210.7 164.8C209 164.8 207.3 164.5 205.8 163.8C204.3 163.2 203 162.3 201.8 161.1C200.7 160 199.8 158.6 199.1 157.1C198.5 155.6 198.1 154 198.1 152.2C198.1 150.5 198.4 148.9 199.1 147.4C199.7 145.9 200.6 144.6 201.8 143.4C202.9 142.3 204.3 141.4 205.8 140.7C207.3 140 208.9 139.7 210.7 139.7C212.4 139.7 214 140 215.5 140.7C217 141.3 218.3 142.2 219.5 143.4C220.6 144.5 221.5 145.9 222.2 147.4C222.8 148.9 223.2 150.5 223.2 152.2V163.1V163.1ZM210.7 161.4C212 161.4 213.1 161.2 214.3 160.7C215.4 160.2 216.4 159.6 217.2 158.7C218 157.9 218.7 156.9 219.2 155.8C219.7 154.7 219.9 153.5 219.9 152.2C219.9 150.9 219.7 149.8 219.2 148.6C218.7 147.5 218.1 146.5 217.2 145.7C216.4 144.9 215.4 144.2 214.3 143.7C213.2 143.2 212 143 210.7 143C209.4 143 208.3 143.2 207.1 143.7C206 144.2 205 144.8 204.2 145.7C203.4 146.5 202.7 147.5 202.2 148.6C201.7 149.7 201.5 150.9 201.5 152.2C201.5 153.5 201.7 154.7 202.2 155.8C202.7 156.9 203.3 157.9 204.2 158.7C205 159.5 206 160.2 207.1 160.7C208.3 161.1 209.5 161.4 210.7 161.4Z" fill="#684212"/>
<path d="M92.8 62.3C92.9 63.5 93 64.7 93.1 67.2C91.3 64.4 90.1 62.6 89 60.8C89.9 60 91 59.1 92.6 57.6C96 59.3 100.4 61.4 105 63.6C103.4 66.9 98.4 67.9 98.4 67.9C98.4 67.9 99 66 99.3 65.3C99.2 65 93.1 62.3 92.8 62.3Z" fill="#684212"/>
<path d="M130.7 62.3C130.6 63.5 130.5 64.7 130.4 67.2C132.2 64.4 133.4 62.6 134.5 60.8C133.6 60 132.5 59.1 130.9 57.6C127.5 59.3 123.1 61.4 118.5 63.6C120.1 66.9 125.1 67.9 125.1 67.9C125.1 67.9 124.5 66 124.2 65.3C124.3 64.9 130.4 62.2 130.7 62.3Z" fill="#684212"/>
<path d="M160.4 79.5C157.1 68.5 153.5 57.6 150 46.6C146.4 35.4 138.4 0.1 137.8 0C135.1 4.4 132.2 8.70001 129.6 13.1C127 17.7 124.6 22.4 121.9 27.5C119.4 27.5 112 28.5 112 28.5C112 28.5 103.4 28.4 100.9 28.4C98.2999 23.4 95.9999 18.8 93.4 14.3C90.9 9.9 88.1 5.8 85.4 1.5C84.9 1.7 77 36 73.5 46.9C70.1 57.6 66.5999 68.2 63.3999 78.9C62.9999 80.2 63.2 82.4 64 83.1C76.8 94 89.8 104.7 102.7 115.5C102.9 115.3 85.6999 90.6 76.7999 78.4C73.3999 73.8 72.7 68.7 80 60.1C82.2 57.5 89.4999 45.3 98.2999 43.2C105.1 43.9 105.1 43.9 106.6 50.8C107.5 55 108.6 59.2 109.6 63.4H112.6C113.7 59.1 114.8 54.8 115.7 50.5C117.3 43.4 117.2 43.4 124.2 42.7C133.2 44.8 140.7 57.3 143 60C150.5 68.8 149.8 74.1 146.3 78.8C137.2 91.3 119.5 116.6 119.7 116.9C133 105.8 146.3 94.8 159.5 83.6C160.7 83.1 160.8 80.8 160.4 79.5ZM89.7 31.6L83.2999 25L87.2999 10.1L95 24.5L89.7 31.6ZM133.4 31.6L128.1 24.4L135.8 10L139.8 24.9L133.4 31.6Z" fill="#684212"/>
<path d="M111.7 92.8C107 92.6 103.3 88.4 104.4 84.4C105.1 81.8 106.8 80.7 109.6 81.5C111.6 82 113.4 82.1 115.4 81.5C117.7 80.8 119.6 82 120.1 84.2C121 88.1 119.6 90.5 115.7 91.8C114.4 92.2 113.1 92.4 111.7 92.8Z" fill="#684212"/>
<path d="M97.0001 92C97.3001 92.5 97.4001 92.8 97.6001 93C98.7001 94.6 99.6001 96.2 100.8 97.6C103 100.1 106 100.7 109.2 99.5C110.2 99.1 111.2 98.6 112.1 98C112.8 97.5 113.4 97.5 114.1 97.9C114.8 98.3 115.6 98.6 116.4 98.9C119.6 99.9 122 99.1 123.6 96.2C124.5 94.5 124.9 92.6 125.6 90.7C125.7 90.4 125.8 90 125.9 89.5C126.7 91.1 126.8 92.6 126.2 94C124 99.9 119.5 103.5 113.3 105C111.2 105.5 109.3 104.7 107.5 103.6C106.5 103 105.4 102.5 104.3 101.9C102.3 100.7 100.1 99.7 98.2001 98.2C96.4001 96.7 96.0001 94.5 97.0001 92Z" fill="#684212"/>
</svg>
