<?xml version="1.0" encoding="utf-8"?>
<!-- Generator: Adobe Illustrator 21.0.2, SVG Export Plug-In . SVG Version: 6.00 Build 0)  -->
<svg version="1.1" id="Camada_1" xmlns="http://www.w3.org/2000/svg" xmlns:xlink="http://www.w3.org/1999/xlink" x="0px" y="0px"
	 viewBox="0 0 1168.5 209" style="enable-background:new 0 0 1168.5 209;" xml:space="preserve">
<style type="text/css">
	.st0{fill:#FFFFFF;}
</style>
<g>
	<path class="st0" d="M178.4,0H30.6C13.7,0,0,13.7,0,30.6v147.8C0,195.3,13.7,209,30.6,209h61.6v-73.9H67.8V98.4h24.5V73.5
		c0-20.3,16.5-36.7,36.7-36.7h37.1v36.7H129v24.9h37.1l-6.1,36.7h-31V209h49.4c16.9,0,30.6-13.7,30.6-30.6V30.6
		C209,13.7,195.3,0,178.4,0z"/>
	<g>
		<path class="st0" d="M350.4,209h147.8c16.9,0,30.6-13.7,30.6-30.6V30.6c0-16.9-13.7-30.6-30.6-30.6H350.4
			c-16.9,0-30.6,13.7-30.6,30.6v147.8C319.8,195.3,333.6,209,350.4,209z M332.1,30.6c0-10.1,8.2-18.4,18.4-18.4h147.8
			c10.1,0,18.4,8.2,18.4,18.4v147.8c0,10.1-8.2,18.4-18.4,18.4H350.4c-10.1,0-18.4-8.2-18.4-18.4V30.6H332.1z"/>
		<path class="st0" d="M424.3,159.6c30.4,0,55.1-24.7,55.1-55.1s-24.7-55.1-55.1-55.1s-55.1,24.7-55.1,55.1S393.9,159.6,424.3,159.6
			z M424.3,61.6c23.6,0,42.9,19.2,42.9,42.9s-19.2,42.9-42.9,42.9c-23.6,0-42.9-19.2-42.9-42.9S400.7,61.6,424.3,61.6z"/>
		<path class="st0" d="M485.6,61.6c10.1,0,18.4-8.2,18.4-18.4s-8.2-18.4-18.4-18.4s-18.4,8.2-18.4,18.4S475.4,61.6,485.6,61.6z
			 M485.6,37.1c3.4,0,6.1,2.7,6.1,6.1s-2.7,6.1-6.1,6.1s-6.1-2.7-6.1-6.1S482.2,37.1,485.6,37.1z"/>
	</g>
	<path class="st0" d="M717.6,190c-9,0-18.3-0.7-27.7-2.2c-16.5-2.6-33.2-11.2-37.9-13.8l-12.4-6.8l13.4-4.4
		c14.7-4.8,23.6-7.8,34.6-12.5c-11.1-5.4-19.6-15-23.7-27.4l-3.1-9.5l2.6,0.4c-2.4-2.4-4.3-4.9-5.8-7.2c-5.3-8-8.1-17.8-7.5-26.2
		l0.6-8.3l4.9,1.9c-2.1-3.9-3.6-8.2-4.5-12.6c-2.2-10.8-0.4-22.2,5.1-32.2l4.3-7.9l5.8,6.9c18.2,21.9,41.3,34.9,68.7,38.7
		c-1.1-7.7-0.3-15.2,2.5-21.8c3.2-7.8,9-14.4,16.6-19.1c8.5-5.2,18.8-7.7,29-7.1c10.8,0.7,20.6,4.7,28.5,11.7c3.8-1,6.6-2,10.4-3.5
		c2.3-0.9,4.9-1.8,8.1-3L842,20l-7.8,22.2c0.5,0,1-0.1,1.6-0.1l12.7-0.6L841,51.8c-0.4,0.6-0.5,0.8-0.7,1
		c-0.6,0.9-1.4,2.1-11.7,15.9c-2.6,3.5-3.9,8-3.6,12.7c0.9,17.9-1.3,34.2-6.5,48.3c-5,13.3-12.7,24.7-22.9,34
		c-12.7,11.4-28.8,19.2-48,23.2C738.2,189,728.1,190,717.6,190z"/>
	<path class="st0" d="M1137.9,0H990.1c-16.9,0-30.6,13.7-30.6,30.6v147.8c0,16.9,13.7,30.6,30.6,30.6h147.8
		c16.9,0,30.6-13.7,30.6-30.6V30.6C1168.5,13.7,1154.8,0,1137.9,0z M1033.4,165.7h-24.5V80h24.5V165.7z M1033.4,67.8h-24.5V43.3
		h24.5V67.8z M1119.1,165.7h-24.5v-49c0-6.8-5.5-12.2-12.2-12.2s-12.2,5.5-12.2,12.2v49h-24.5V80h24.5v4.6c6.4-2,10.6-4.6,18.4-4.6
		c16.6,0,30.6,14.9,30.6,32.5v53.2H1119.1z"/>
</g>
</svg>
